<svg width="117" height="6" viewBox="0 0 117 6" fill="none" xmlns="http://www.w3.org/2000/svg">
<path d="M0 5H107" stroke="#424242"/>
<path d="M116 5L99 1V5H116Z" fill="#424242"/>
<path d="M116 5V5.5C116.254 5.5 116.467 5.30979 116.497 5.05764C116.526 4.8055 116.362 4.57143 116.115 4.51329L116 5ZM99 1L99.1145 0.513291C98.9658 0.478306 98.8093 0.513206 98.6896 0.608043C98.5698 0.702881 98.5 0.847251 98.5 1H99ZM99 5H98.5C98.5 5.27614 98.7239 5.5 99 5.5V5ZM116.115 4.51329L99.1145 0.513291L98.8855 1.48671L115.885 5.48671L116.115 4.51329ZM98.5 1V5H99.5V1H98.5ZM99 5.5H116V4.5H99V5.5Z" fill="#424242"/>
</svg>
