<svg width="172" height="159" viewBox="0 0 172 159" fill="none" xmlns="http://www.w3.org/2000/svg">
<g clip-path="url(#clip0_7_6)">
<path d="M111.556 159H60.4634C48.0208 159 36.4336 152.285 30.2123 141.47L4.66599 97.0398C-1.55533 86.225 -1.55533 72.7945 4.66599 61.9797L30.2123 17.53C36.4336 6.71528 48.0208 0 60.4634 0H111.556C123.999 0 135.586 6.71528 141.807 17.53L167.353 61.9602C173.575 72.775 173.575 86.2055 167.353 97.0203L141.807 141.47C135.586 152.285 123.999 159 111.556 159ZM60.4634 5.81731C50.0816 5.81731 40.4191 11.4199 35.2282 20.4387L9.68193 64.8689C4.49101 73.8877 4.49101 85.1123 9.68193 94.1311L35.2282 138.561C40.4191 147.58 50.0816 153.183 60.4634 153.183H111.556C121.938 153.183 131.6 147.58 136.791 138.561L162.338 94.1311C167.528 85.1123 167.528 73.8877 162.338 64.8689L136.791 20.4387C131.6 11.4199 121.938 5.81731 111.556 5.81731H60.4634V5.81731Z" fill="black"/>
<path d="M104.596 29.2623H97.7329V62.8192H104.596V29.2623Z" fill="black"/>
<path d="M67.793 38.5153V44.1569H77.8443C77.8443 49.1934 73.781 53.2733 68.765 53.2733H67.793V62.8192H91.9978V42.7514C91.9978 40.4088 90.112 38.5153 87.779 38.5153H67.793V38.5153Z" fill="black"/>
<path d="M62.0576 38.5153H37.8528V44.1569H62.0576V38.5153Z" fill="black"/>
<path d="M37.8528 62.8192H62.0576V53.2733H47.3597C42.1105 53.2733 37.8528 57.5485 37.8528 62.8192Z" fill="black"/>
<path d="M135.139 62.7996L119.158 44.1569H135.08C135.08 41.0335 132.553 38.5153 129.462 38.5153H110.875V44.1179V44.1764V62.8777H129.539H135.119H135.178L135.139 62.7996Z" fill="black"/>
<path d="M104.518 81.3252H97.6165V130.362H104.518V81.3252Z" fill="black"/>
<path d="M109.553 96.786L110.176 105.746H133.233L133.855 96.786H109.553Z" fill="black"/>
<path d="M133.583 93.4479C133.583 86.7521 128.179 81.3448 121.53 81.3448C114.861 81.3448 109.476 86.7717 109.476 93.4479H133.583Z" fill="black"/>
<path d="M74.092 110.08H91.9783L91.9977 85.6004C91.9977 83.2383 90.0924 81.3448 87.7595 81.3448H67.6957V89.407H78.6997V98.4258H67.6957V108.792H67.6763V115.175V115.956V130.382H86.3402H91.92H91.9783L91.92 130.323L74.092 110.08Z" fill="black"/>
<path d="M86.6409 72.6067L81.417 67.3614L76.1931 72.6067L81.417 77.852L86.6409 72.6067Z" fill="black"/>
</g>
<defs>
<clipPath id="clip0_7_6">
<rect width="172" height="159" fill="white"/>
</clipPath>
</defs>
</svg>
