<svg width="329" height="300" viewBox="0 0 329 300" fill="none" xmlns="http://www.w3.org/2000/svg">
<path d="M238.148 0H217.768V99.2431H238.148V0Z" fill="white"/>
<path d="M128.954 27.3377V44.0358H158.785C158.785 58.9311 146.734 70.9892 131.848 70.9892H128.954V99.2431H200.785V39.8686C200.785 32.953 195.173 27.3081 188.232 27.3081H128.954V27.3377Z" fill="white"/>
<path d="M111.97 27.3376H40.1392V44.0358H111.97V27.3376Z" fill="white"/>
<path d="M40.1392 99.2431H111.97V70.9893H68.3754C52.7805 70.9893 40.1392 83.6385 40.1392 99.2431Z" fill="white"/>
<path d="M328.793 99.1839L281.418 44.0358H328.675C328.675 34.8149 321.202 27.3376 311.987 27.3376H256.844V43.888V44.0358V99.3022H312.224H328.793H328.97L328.793 99.1839Z" fill="white"/>
<path d="M237.911 153.977H217.443V299H237.911V153.977Z" fill="white"/>
<path d="M252.856 199.639L254.717 226.149H323.122L324.983 199.639H252.856Z" fill="white"/>
<path d="M324.156 189.797C324.156 170.025 308.118 153.977 288.358 153.977C268.599 153.977 252.561 170.025 252.561 189.797H324.156Z" fill="white"/>
<path d="M147.679 238.975H200.755L200.844 166.597C200.844 159.652 195.203 154.007 188.262 154.007H128.658V177.857H161.295V204.545H128.658V235.163H128.629V254.078V256.383V299.03H184.008H200.578H200.755L200.578 298.882L147.679 238.975Z" fill="white"/>
<path d="M184.856 128.143L169.359 112.637L153.863 128.143L169.359 143.65L184.856 128.143Z" fill="white"/>
<path d="M99.1814 134.738H55.8228V141.919H99.1814V134.738Z" fill="white"/>
<path d="M62.2025 191.423L65.7763 187.906L65.2151 187.462C60.962 184.241 58.54 179.542 58.54 174.518C58.54 173.395 58.5991 172.508 58.7763 171.621C59.4556 167.484 61.7299 163.878 65.1856 161.455C69.2615 158.588 74.6075 157.554 80.2193 158.529C89.5527 160.125 96.0801 167.07 96.0801 175.375C96.0801 180.222 93.8649 184.862 90.1729 187.847L89.6413 188.29L92.7721 191.423L93.2151 191.009C97.675 186.605 100.067 180.547 100.008 173.897C100.067 167.395 97.7341 161.425 93.4514 157.081C89.3459 152.914 83.675 150.638 77.502 150.638C71.3291 150.638 65.6582 152.943 61.5231 157.081C57.2404 161.396 54.9071 167.395 54.9662 173.867C54.9071 180.517 57.3291 186.605 61.789 191.009L62.2025 191.423Z" fill="white"/>
<path d="M55.8228 224.937H59.5147V204.929H76.8818V220.947H80.5738V204.929H95.4894V224.937H99.1814V197.747H55.8228V224.937Z" fill="white"/>
<path d="M0 133.142V136.895H30.481L0.35443 152.056L0 152.204V156.43L30.2152 170.055H0V177.296H43.3587V171.887L8.35865 156.135L43.0338 138.639L43.3587 138.462V130.334L37.8354 133.142H0Z" fill="white"/>
<path d="M0.85654 183.591L0 183.266V187.285L8.18143 190.536V208.978L0 212.318V220.149L42.9747 202.624L43.3587 202.476V194.644L36.0633 197.6L0.85654 183.591ZM11.8734 207.471V192.014L31.1013 199.668L11.8734 207.471Z" fill="white"/>
<path d="M0 227.301V230.996H33.0211L0.265823 253.073L0 253.25V257.624H43.3587V253.871H12.0211L43.0928 232.946L43.3587 232.769V224.08L38.5148 227.301H0Z" fill="white"/>
<path d="M57.7721 237.498C59.5991 237.498 61.0801 236.016 61.0801 234.188C61.0801 232.36 59.5991 230.878 57.7721 230.878C55.9452 230.878 54.4641 232.36 54.4641 234.188C54.4641 236.016 55.9452 237.498 57.7721 237.498Z" fill="white"/>
</svg>
