<svg width="1143" height="1117" viewBox="0 0 1143 1117" fill="none" xmlns="http://www.w3.org/2000/svg">
<g opacity="0.05">
<path d="M565.754 250.661H506.981V538.111H565.754V250.661Z" fill="white"/>
<path d="M250.575 329.923V378.25H336.654C336.654 421.392 301.857 456.341 258.9 456.341H250.575V538.111H457.864V366.21C457.864 346.144 441.714 329.923 421.735 329.923H250.575V329.923Z" fill="white"/>
<path d="M201.459 329.923H-5.83008V378.25H201.459V329.923Z" fill="white"/>
<path d="M-5.83008 538.111H201.459V456.341H75.587C30.6328 456.341 -5.83008 492.962 -5.83008 538.111Z" fill="white"/>
<path d="M827.321 537.944L690.461 378.25H826.822C826.822 351.495 805.177 329.923 778.704 329.923H619.533V377.915V378.417V538.613H779.37H827.155H827.654L827.321 537.944Z" fill="white"/>
<path d="M565.088 696.635H505.982V1116.69H565.088V696.635Z" fill="white"/>
<path d="M608.211 829.073L613.539 905.826H811.005L816.333 829.073H608.211Z" fill="white"/>
<path d="M814.002 800.478C814.002 743.122 767.716 696.802 710.773 696.802C653.665 696.802 607.545 743.289 607.545 800.478H814.002Z" fill="white"/>
<path d="M304.521 942.949H457.698L457.864 733.256C457.864 713.022 441.548 696.802 421.568 696.802H249.743V765.864H343.98V843.119H249.743V931.912H249.577V986.593V993.282V1116.86H409.414H457.198H457.698L457.198 1116.36L304.521 942.949Z" fill="white"/>
<path d="M411.989 621.951L367.252 577.02L322.514 621.951L367.252 666.883L411.989 621.951Z" fill="white"/>
</g>
</svg>
