<svg width="57" height="57" viewBox="0 0 57 57" fill="none" xmlns="http://www.w3.org/2000/svg">
<path d="M28.55 6.5246e-05C12.8186 -0.0333006 0.0111248 12.7347 7.23256e-06 28.4722C-0.0111104 44.1875 12.7964 57.0111 28.5056 57C44.2259 56.9889 56.9778 44.232 57 28.5167C57.0111 12.8014 44.2592 0.0223091 28.55 6.5246e-05ZM13.4412 15.2816C13.5746 15.2594 13.7191 15.2705 13.8526 15.2705C23.4582 15.2705 33.0638 15.2705 42.6694 15.2705C43.1808 15.2705 43.67 15.3261 44.2036 15.593C43.67 16.1158 43.1586 16.6051 42.6694 17.1056C38.189 21.5989 33.7197 26.0921 29.2393 30.5743C28.6167 31.2082 27.9274 31.2082 27.3049 30.5743C22.402 25.6584 17.5102 20.7425 12.6074 15.8266C12.5407 15.7487 12.4628 15.682 12.3294 15.5263C12.7408 15.4373 13.0965 15.3483 13.4412 15.2816ZM10.5395 37.1585C10.5284 30.8857 10.5284 24.6129 10.5395 18.3401C10.5395 17.9175 10.6952 17.4949 10.773 17.0834C14.3862 20.6646 17.9549 24.2014 21.5348 27.7493C17.9549 31.2972 14.3973 34.8228 10.773 38.4152C10.6952 38.0037 10.5395 37.5811 10.5395 37.1585ZM43.0919 40.217C42.9473 40.2392 42.7917 40.2281 42.6472 40.2281C33.0638 40.2281 23.4804 40.2281 13.897 40.217C13.3967 40.217 12.9076 40.1058 12.4073 40.039C12.4073 39.9945 12.3961 39.9389 12.3961 39.8945C15.9538 36.3688 19.5114 32.8431 23.1135 29.2841C23.2358 29.4176 23.4026 29.5955 23.5805 29.7735C24.3253 30.5298 25.0813 31.275 25.8262 32.0312C27.2826 33.4993 29.2727 33.4882 30.7402 32.0201C31.663 31.097 32.5857 30.185 33.464 29.3064C37.0328 32.8431 40.5904 36.3688 44.2259 39.9612C43.8034 40.0724 43.4476 40.1503 43.0919 40.217ZM46.0158 37.5255C45.9157 37.8258 45.8157 38.1261 45.7267 38.4041C42.1469 34.8451 38.5781 31.3194 35.0094 27.7827C38.6004 24.2236 42.1691 20.6869 45.749 17.1501C45.8268 17.3725 45.9157 17.6728 46.0158 17.9731C46.0158 24.4906 46.0158 31.008 46.0158 37.5255Z" fill="#2E2E2E"/>
</svg>
