<svg width="58" height="59" viewBox="0 0 58 59" fill="none" xmlns="http://www.w3.org/2000/svg">
<path d="M26.7938 0.911133C27.9869 0.911133 29.1799 0.911133 30.3619 0.911133C31.042 0.989184 31.7222 1.06723 32.4023 1.15644C38.5349 2.02615 43.9204 4.52378 48.3247 8.87234C55.7619 16.2203 58.5717 25.1404 56.4978 35.3762C54.7249 44.118 49.6293 50.5627 41.8019 54.8221C40.1405 55.7253 38.3788 56.4166 36.5279 56.9295C36.5279 49.8826 36.5279 42.858 36.5279 35.7999C38.5795 35.7999 40.5865 35.7999 42.627 35.7999C42.9392 33.4138 43.2403 31.0723 43.5525 28.6527C41.1552 28.6527 38.836 28.6527 36.5279 28.6527C36.5279 26.746 36.4498 24.9062 36.5502 23.0776C36.6282 21.7173 37.3753 20.9702 38.7245 20.7807C39.7503 20.6357 40.7984 20.6692 41.8353 20.6469C42.4598 20.6357 43.0842 20.6469 43.7197 20.6469C43.7197 18.4726 43.7197 16.3875 43.7197 14.2133C42.3817 14.1352 41.066 14.0014 39.7503 14.0126C38.3788 14.0237 36.9739 14.0014 35.647 14.2913C31.7891 15.1276 29.336 18.1381 29.1353 22.1745C29.035 24.1034 29.0796 26.0436 29.0684 27.9725C29.0684 28.1844 29.0684 28.4074 29.0684 28.6861C26.9945 28.6861 24.9986 28.6861 22.9805 28.6861C22.9805 31.0946 22.9805 33.4473 22.9805 35.8557C25.0321 35.8557 27.028 35.8557 29.0238 35.8557C29.0238 43.2928 29.0238 50.6742 29.0238 58.0445C28.9235 58.0556 28.8677 58.0779 28.8231 58.0779C28.6782 58.0779 28.5221 58.0891 28.3771 58.0891C24.2516 58.0445 20.2821 57.2417 16.5691 55.4242C7.72705 51.1314 2.34153 44.1403 0.446008 34.4842C0.234155 33.4361 0.144952 32.3545 0 31.2841C0 30.0911 0 28.898 0 27.7161C0.0446006 27.3481 0.100354 26.9802 0.133805 26.6234C0.802814 20.4462 3.17779 15.0049 7.3368 10.3999C11.7523 5.52729 17.2047 2.4833 23.7052 1.35714C24.731 1.16759 25.768 1.05608 26.7938 0.911133Z" fill="#2E2E2E"/>
</svg>
