<svg width="189" height="174" viewBox="0 0 189 174" fill="none" xmlns="http://www.w3.org/2000/svg">
<g clip-path="url(#clip0_33_30)">
<path d="M122.582 174H66.4395C52.767 174 40.0346 166.651 33.1984 154.816L5.12716 106.194C-1.70905 94.3595 -1.70905 79.6619 5.12716 67.8269L33.1984 19.1838C40.0346 7.3488 52.767 0 66.4395 0H122.582C136.254 0 148.987 7.3488 155.823 19.1838L183.894 67.8055C190.73 79.6405 190.73 94.3381 183.894 106.173L155.823 154.816C148.987 166.651 136.254 174 122.582 174ZM66.4395 6.36611C55.0315 6.36611 44.414 12.4972 38.7101 22.3669L10.6389 70.9886C4.93489 80.8582 4.93489 93.1418 10.6389 103.011L38.7101 151.633C44.414 161.503 55.0315 167.634 66.4395 167.634H122.582C133.99 167.634 144.607 161.503 150.311 151.633L178.382 103.011C184.086 93.1418 184.086 80.8582 178.382 70.9886L150.311 22.3669C144.607 12.4972 133.99 6.36611 122.582 6.36611H66.4395Z" fill="black"/>
<path d="M114.934 32.0225H107.393V68.7451H114.934V32.0225Z" fill="black"/>
<path d="M74.4934 42.1484V48.3223H85.5382C85.5382 53.8339 81.0733 58.2987 75.5616 58.2987H74.4934V68.7451H101.091V46.7842C101.091 44.2206 99.0183 42.1484 96.4548 42.1484H74.4934Z" fill="black"/>
<path d="M68.1913 42.1484H41.5941V48.3223H68.1913V42.1484Z" fill="black"/>
<path d="M41.5941 68.7452H68.1913V58.2988H52.0407C46.2727 58.2988 41.5941 62.9773 41.5941 68.7452Z" fill="black"/>
<path d="M148.495 68.7238L130.935 48.3223H148.431C148.431 44.9042 145.654 42.1484 142.257 42.1484H121.834V48.2796V48.3436V68.8092H142.343H148.474H148.538L148.495 68.7238Z" fill="black"/>
<path d="M114.848 88.9971H107.265V142.66H114.848V88.9971Z" fill="black"/>
<path d="M120.381 105.916L121.065 115.722H146.402L147.085 105.916H120.381Z" fill="black"/>
<path d="M146.786 102.263C146.786 94.9361 140.847 89.0186 133.541 89.0186C126.214 89.0186 120.296 94.9574 120.296 102.263H146.786Z" fill="black"/>
<path d="M81.4151 120.465H101.069L101.091 93.6756C101.091 91.0907 98.997 89.0186 96.4334 89.0186H74.3866V97.8414H86.4781V107.711H74.3866V119.055H74.3652V126.04V126.895V142.682H94.8739H101.005H101.069L101.005 142.618L81.4151 120.465Z" fill="black"/>
<path d="M95.2044 79.456L89.4641 73.7158L83.7239 79.456L89.4641 85.1961L95.2044 79.456Z" fill="black"/>
</g>
<defs>
<clipPath id="clip0_33_30">
<rect width="189" height="174" fill="white"/>
</clipPath>
</defs>
</svg>
