<svg width="58" height="59" viewBox="0 0 58 59" fill="none" xmlns="http://www.w3.org/2000/svg">
<path d="M0.40821 29.4555C0.419361 13.6892 13.2643 0.888862 29.0418 0.911162C44.7969 0.933462 57.5862 13.7561 57.575 29.5001C57.5639 45.2553 44.7635 58.0445 28.9972 58.0557C13.242 58.078 0.39706 45.2218 0.40821 29.4555ZM10.7555 29.4555C10.7332 29.4555 10.7109 29.4555 10.6998 29.4555C10.6998 32.1985 10.6886 34.9526 10.7109 37.6955C10.7109 38.3311 10.7332 38.9666 10.8559 39.591C11.7256 44.3633 15.5947 47.6972 20.4673 47.7418C26.1539 47.7975 31.8405 47.8087 37.5271 47.7418C43.091 47.686 47.2834 43.3932 47.2946 37.8293C47.3169 32.2542 47.328 26.6903 47.2723 21.1152C47.2611 19.9445 47.0604 18.7291 46.6702 17.6252C45.3099 13.7227 41.5969 11.2027 37.3375 11.1916C31.9408 11.1804 26.5442 11.1804 21.1475 11.1916C20.5119 11.1916 19.8764 11.225 19.252 11.2919C14.8588 11.7603 11.0231 15.6182 10.8001 20.0114C10.6329 23.1557 10.7555 26.3112 10.7555 29.4555Z" fill="#2E2E2E"/>
<path d="M13.6101 29.5116C13.6101 27.1701 13.6101 24.8286 13.6101 22.4759C13.6213 17.6033 17.1893 14.0352 22.0508 14.0352C26.7227 14.0352 31.3834 14.0241 36.0554 14.0352C40.1809 14.0464 43.5148 16.8339 44.2507 20.8926C44.3399 21.3832 44.3622 21.8849 44.3622 22.3867C44.3734 27.1144 44.3845 31.842 44.3622 36.5697C44.3511 40.7287 41.675 43.9734 37.6052 44.7873C37.0812 44.8877 36.5348 44.9434 35.9996 44.9434C31.3165 44.9546 26.6223 44.9657 21.9393 44.9434C17.7914 44.9211 14.4464 42.1113 13.7105 38.0415C13.6213 37.5174 13.6101 36.9711 13.6101 36.4359C13.6101 34.1278 13.6101 31.8197 13.6101 29.5116ZM28.9639 39.4464C34.5501 39.4576 39.0993 34.9975 39.1105 29.5116C39.1216 24.0258 34.5835 19.5434 29.0085 19.5211C23.4445 19.4988 18.873 23.9923 18.8618 29.467C18.8507 34.9529 23.3888 39.4353 28.9639 39.4464ZM39.4673 17.1461C37.884 17.1461 36.6017 18.4395 36.6129 20.0006C36.6352 21.5504 37.9063 22.8215 39.4561 22.8215C41.0283 22.8215 42.3106 21.5281 42.2994 19.956C42.2994 18.4061 41.0172 17.135 39.4673 17.1461Z" fill="#2E2E2E"/>
<path d="M28.9749 36.5909C24.9832 36.5797 21.7273 33.3797 21.7496 29.4548C21.7719 25.5411 25.0389 22.3522 29.0195 22.3633C32.9667 22.3745 36.2114 25.5746 36.2114 29.4771C36.2337 33.402 32.9778 36.5909 28.9749 36.5909Z" fill="#2E2E2E"/>
</svg>
