<svg width="121" height="110" viewBox="0 0 121 110" fill="none" xmlns="http://www.w3.org/2000/svg">
<path d="M23.0891 68.4895L27.6596 66.6416L23.0891 64.8331V68.4895Z" fill="white"/>
<path d="M116.756 42.918L98.8844 12.0781C94.5508 4.60791 86.5387 0 77.8793 0H42.1288C33.4615 0 25.4573 4.60791 21.1236 12.0781L3.25231 42.918C-1.08133 50.396 -1.08133 59.604 3.25231 67.0741L21.1236 97.9141C25.4573 105.392 33.4615 109.992 42.1288 109.992H77.8793C86.5466 109.992 94.5508 105.384 98.8844 97.9141L116.756 67.0741C121.089 59.604 121.089 50.396 116.756 42.918ZM50.8829 36.2342H51.5696C55.0981 36.2342 57.9635 33.3798 57.9635 29.8649H50.8829V25.9175H64.9573C66.5992 25.9175 67.9333 27.2464 67.9333 28.882V42.9101H50.8829V36.2342ZM64.1522 49.7434L60.4737 53.4077L56.7952 49.7434L60.4737 46.0791L64.1522 49.7434ZM30.5645 74.4657L30.5014 74.505L23.1286 79.451H30.5724V80.3396H20.2711V79.3016L20.3343 79.2623L28.1096 74.0489H20.2711V73.1761H29.4199L30.5645 72.4055V74.4657ZM30.5645 67.31L30.4698 67.3493L20.2632 71.4855V69.6376L22.2051 68.8512V64.495L20.2632 63.7244V62.7729L20.4606 62.8515L28.82 66.162L30.5487 65.4622V67.31H30.5645ZM30.5645 52.181L30.4856 52.2203L22.2603 56.3564L30.5645 60.0836V61.3654H20.2711V59.6512H27.4386L20.2711 56.4272V55.4364L20.3501 55.3971L27.5017 51.8114H20.2711V50.9229H29.2541L30.5645 50.2623V52.181ZM33.9904 75.5901C33.5562 75.5901 33.201 75.2363 33.201 74.8038C33.201 74.3713 33.5562 74.0174 33.9904 74.0174C34.4245 74.0174 34.7797 74.3713 34.7797 74.8038C34.7718 75.2363 34.4166 75.5901 33.9904 75.5901ZM43.818 72.6178H42.9418V67.8919H39.4054V71.6742H38.5213V67.8919H34.4008V72.6178H33.5246V66.1934H43.818V72.6178ZM42.405 64.5972L42.3024 64.6994L41.5525 63.9603L41.6788 63.858C42.555 63.1582 43.0839 62.0573 43.0839 60.9093C43.0839 58.9435 41.5367 57.3079 39.3186 56.9226C37.9846 56.6867 36.7137 56.9383 35.7507 57.6146C34.9376 58.1886 34.3929 59.0457 34.2351 60.0207C34.1956 60.233 34.1798 60.4453 34.1798 60.7048C34.1798 61.8922 34.7561 63.0009 35.7664 63.7637L35.9006 63.8659L35.0481 64.6994L34.9455 64.5972C33.8799 63.5592 33.3115 62.1202 33.3194 60.5476C33.3036 59.0142 33.8562 57.5988 34.8745 56.5766C35.8533 55.5937 37.1952 55.0511 38.6634 55.0511C40.1317 55.0511 41.4736 55.5937 42.4524 56.5766C43.4707 57.5988 44.0233 59.0142 44.0075 60.5476C44.0311 62.1202 43.4549 63.5592 42.405 64.5972ZM33.5246 52.9988V51.3003H43.818V52.9988H33.5246ZM46.8492 42.9101H29.7988C29.7988 39.2222 32.7984 36.2342 36.5006 36.2342H46.8492V42.9101ZM46.8492 29.8649H29.7988V25.9175H46.8492V29.8649ZM67.9254 75.9361H55.327L67.878 90.0901L67.9175 90.1215H67.8859H63.9548H50.8039V80.0486V79.506V75.0397H50.8118V67.7976H58.5634V61.4912H50.8118V55.8532H64.9573C66.6071 55.8532 67.9491 57.1899 67.9491 58.8334L67.9254 75.9361ZM76.7505 90.1215H71.888V55.8453H76.7505V90.1215ZM76.8137 42.9101H71.9748V19.4539H76.8137V42.9101ZM96.9821 72.9087H80.7368L80.2948 66.6416H97.4162L96.9821 72.9087ZM80.2316 64.3141C80.2316 59.6433 84.0364 55.8532 88.7253 55.8532C93.4141 55.8532 97.2189 59.6433 97.2189 64.3141H80.2316ZM98.3319 42.9259H94.4008H81.2578V29.8649V29.8256V25.9175H94.3456C96.5321 25.9175 98.3082 27.6868 98.3082 29.8649H87.0834L98.3319 42.8944L98.3714 42.9259H98.3319Z" fill="white"/>
</svg>
